Coordinates
version=1
nRows=13
nColumns=40
inDegrees=yes

Units are S.I. units (second, meters, Newtons, ...)
If the header above contains a line with 'inDegrees', this indicates whether rotational values are in degrees (yes) or radians (no).

endheader
time	pelvis_tilt	pelvis_list	pelvis_rotation	pelvis_tx	pelvis_ty	pelvis_tz	hip_flexion_r	hip_adduction_r	hip_rotation_r	knee_angle_r	knee_angle_r_beta	ankle_angle_r	subtalar_angle_r	mtp_angle_r	hip_flexion_l	hip_adduction_l	hip_rotation_l	knee_angle_l	knee_angle_l_beta	ankle_angle_l	subtalar_angle_l	mtp_angle_l	lumbar_extension	lumbar_bending	lumbar_rotation	arm_flex_r	arm_add_r	arm_rot_r	elbow_flex_r	pro_sup_r	wrist_flex_r	wrist_dev_r	arm_flex_l	arm_add_l	arm_rot_l	elbow_flex_l	pro_sup_l	wrist_flex_l	wrist_dev_l
      2.25000000	      5.29176631	     -0.16685123	      0.17442901	     -0.28923725	      1.05195001	     -0.99919107	      8.26118229	     -6.04349508	      3.05166036	     12.09380017	      0.21107663	      4.02497792	      0.00000000	      0.00000000	      5.97050708	      2.11954695	     -3.98160853	     22.72062298	      0.39654968	      0.21098676	      0.00000000	      0.00000000	     -9.71136837	     -1.50624726	     -2.33527393	     87.78563019	     -8.78758341	     65.83835735	     49.61338549	     83.76210982	      0.00000000	      0.00000000	     89.74842943	    -16.88085002	     65.87651897	     53.51725898	     81.38478809	      0.00000000	      0.00000000
      2.25500000	      5.21897410	     -0.21789461	      0.20614717	     -0.28996723	      1.05172850	     -0.99937774	      8.48502946	     -5.99690365	      3.15827327	     11.93830566	      0.20836274	      3.95410803	      0.00000000	      0.00000000	      6.18895568	      2.06489045	     -3.95941621	     22.91561162	      0.39995287	      0.30577914	      0.00000000	      0.00000000	     -9.71698248	     -1.47977883	     -2.34489858	     87.85311416	     -8.83994026	     65.81913483	     49.63980634	     83.71900279	      0.00000000	      0.00000000	     89.75091801	    -16.80342633	     65.77474809	     53.47380113	     80.97685643	      0.00000000	      0.00000000
      2.26000000	      5.18946026	     -0.26883852	      0.23166360	     -0.28993108	      1.05148865	     -0.99970665	      8.61389085	     -5.96632322	      3.06887832	     11.80910635	      0.20610779	      3.67324093	      0.00000000	      0.00000000	      6.28015788	      2.02643551	     -3.93225384	     23.05229302	      0.40233841	      0.40965867	      0.00000000	      0.00000000	     -9.69327808	     -1.43639782	     -2.41208069	     87.87647329	     -8.81778991	     65.87267894	     49.61755009	     83.67530145	      0.00000000	      0.00000000	     89.74951565	    -16.83325996	     65.78226610	     53.51352360	     81.33064895	      0.00000000	      0.00000000
      2.26500000	      5.29165706	     -0.33021942	      0.24182442	     -0.28998977	      1.05129116	     -0.99991402	      8.60805349	     -5.91156730	      3.01915655	     11.62234577	      0.20284820	      3.96026103	      0.00000000	      0.00000000	      6.23044139	      1.96846982	     -3.93287647	     23.18180007	      0.40459874	      0.51589417	      0.00000000	      0.00000000	     -9.81040550	     -1.41169122	     -2.37941554	     87.91840555	     -8.93908547	     65.91582207	     49.70074396	     83.64892258	      0.00000000	      0.00000000	     89.74993468	    -16.70078499	     65.75204545	     53.41282522	     81.32601758	      0.00000000	      0.00000000
      2.27000000	      5.10832445	     -0.46725484	      0.37676866	     -0.29068592	      1.05072198	     -1.00006372	      8.95958529	     -5.79213995	      2.88430709	     11.51766065	      0.20102110	      3.59810303	      0.00000000	      0.00000000	      6.64808161	      1.82979619	     -3.70296777	     23.54015328	      0.41085318	      0.67773649	      0.00000000	      0.00000000	     -9.68099991	     -1.27919073	     -2.52259687	     87.98851362	     -8.88275394	     65.99575908	     49.56322250	     83.45986527	      0.00000000	      0.00000000	     89.75350104	    -16.73765480	     65.68851121	     53.50658388	     81.12957865	      0.00000000	      0.00000000
      2.27500000	      5.14435462	     -0.55013253	      0.42651276	     -0.29091811	      1.05055270	     -1.00029659	      9.04506222	     -5.70777186	      2.98307150	     11.42381687	      0.19938322	      3.88897145	      0.00000000	      0.00000000	      6.74458295	      1.74466668	     -3.69380927	     23.77039890	      0.41487173	      0.65712965	      0.00000000	      0.00000000	     -9.76205831	     -1.21746851	     -2.58529257	     88.02950410	     -8.89909668	     66.00262174	     49.60280201	     83.70100829	      0.00000000	      0.00000000	     89.75350025	    -16.71818666	     65.66199582	     53.43961490	     81.16726102	      0.00000000	      0.00000000
      2.28000000	      5.30148873	     -0.38408077	      0.30035548	     -0.29086617	      1.05062526	     -1.00057613	      9.00244357	     -5.90523593	      3.15139770	     11.26907036	      0.19668238	      3.68042150	      0.00000000	      0.00000000	      6.54607305	      1.94611418	     -3.83246058	     23.73267817	      0.41421337	      0.69771214	      0.00000000	      0.00000000	     -9.94461094	     -1.41166183	     -2.50381679	     88.06575408	     -8.91512048	     66.00340489	     49.63013687	     83.72187568	      0.00000000	      0.00000000	     89.74932662	    -16.71344801	     65.72681679	     53.41960938	     81.08448647	      0.00000000	      0.00000000
      2.28500000	      5.31384537	     -0.45665732	      0.19774136	     -0.29096445	      1.05035759	     -1.00061648	      9.12289138	     -5.80482241	      3.24852915	     11.12487249	      0.19416565	      3.80098715	      0.00000000	      0.00000000	      6.64143480	      1.85257441	     -3.96691633	     23.95420912	      0.41807982	      0.72414061	      0.00000000	      0.00000000	     -9.96959326	     -1.38621874	     -2.38359008	     88.05810672	     -8.99395666	     66.01060192	     49.72125387	     83.58641986	      0.00000000	      0.00000000	     89.75114557	    -16.67389810	     65.50981775	     53.48983608	     80.90981550	      0.00000000	      0.00000000
      2.29000000	      5.38666765	     -0.37309718	      0.18360082	     -0.29074527	      1.04996673	     -1.00077307	      9.17030626	     -5.91034446	      3.33559682	     11.03430386	      0.19258493	      3.71177348	      0.00000000	      0.00000000	      6.61060195	      1.95674989	     -3.97272770	     24.08865662	      0.42042637	      0.89184546	      0.00000000	      0.00000000	    -10.01854117	     -1.49046709	     -2.45185663	     88.09571315	     -8.84807994	     66.25433501	     49.38585515	     83.69238956	      0.00000000	      0.00000000	     89.75276975	    -16.73184568	     65.63483997	     53.47022195	     80.85893821	      0.00000000	      0.00000000
      2.29500000	      5.20419487	     -0.44794442	      0.17940570	     -0.29202457	      1.04964756	     -1.00091142	      9.65723495	     -5.82188540	      3.42318261	     11.08594587	      0.19348626	      3.65952301	      0.00000000	      0.00000000	      7.03065892	      1.89324664	     -3.80952023	     24.37808164	      0.42547779	      0.87193330	      0.00000000	      0.00000000	     -9.96249026	     -1.44543287	     -2.42669542	     88.16509223	     -8.92626200	     66.19099585	     49.51156107	     83.71211179	      0.00000000	      0.00000000	     89.75623683	    -16.65184176	     65.42166283	     53.39747748	     81.44535402	      0.00000000	      0.00000000
      2.30000000	      5.28341080	     -0.44295166	      0.07303318	     -0.29183538	      1.04939519	     -1.00099765	      9.60505694	     -5.80028548	      3.96122221	     10.73988057	      0.18744628	      3.83265163	      0.00000000	      0.00000000	      7.00445571	      1.91175793	     -3.83201445	     24.52466441	      0.42803614	      0.91745692	      0.00000000	      0.00000000	    -10.04030533	     -1.51430931	     -2.33260943	     88.09561527	     -9.09589944	     66.49559056	     50.06315490	     74.12044531	      0.00000000	      0.00000000	     89.76435097	    -16.63438434	     66.01729925	     53.54339597	     72.97354998	      0.00000000	      0.00000000
      2.30500000	      5.22532096	     -0.53954781	      0.00698020	     -0.29220389	      1.04900609	     -1.00106554	      9.96987416	     -5.69770502	      3.71086371	     10.92674084	      0.19070760	      3.55229462	      0.00000000	      0.00000000	      7.20982670	      1.78654147	     -3.95029043	     24.80310916	      0.43289592	      1.12707543	      0.00000000	      0.00000000	    -10.02469793	     -1.43159642	     -2.29384081	     88.22311011	     -8.96374581	     66.23408876	     49.58445418	     83.89352700	      0.00000000	      0.00000000	     89.75370979	    -16.63423286	     65.45577851	     53.39247847	     80.83186132	      0.00000000	      0.00000000
      2.31000000	      5.32339735	     -0.59379120	     -0.01400974	     -0.29232416	      1.04870106	     -1.00119643	     10.02197498	     -5.63845114	      3.81547190	     10.87443498	      0.18979469	      3.71533799	      0.00000000	      0.00000000	      7.22135937	      1.71874218	     -4.03369923	     25.04150743	      0.43705675	      1.21861941	      0.00000000	      0.00000000	    -10.15050034	     -1.40218090	     -2.27238542	     88.27047414	     -8.98155045	     66.28054658	     49.58353166	     83.70080310	      0.00000000	      0.00000000	     89.75261993	    -16.59798079	     65.31183021	     53.35043919	     81.34254225	      0.00000000	      0.00000000
